The Taking of Pelham 123 1080p.mkv
**********************************

TiTLE......  The Taking of Pelham 1 2 3
YEAR.......  2009
GENRE......  Action | Crime | Thriller 
iMDB RATE..  User Rating: 6.5/10 (29,192 votes)
iMDB URL...  http://www.imdb.com/title/tt1111422/
Awards 2010: 4 nominations
*************************************************

Video
Duration                         : 1h 45mn
Bit rate                         : 6 302 Kbps
Width                            : 1 920 pixels
Height                           : 816 pixels
Display aspect ratio             : 2.35:1
Frame rate                       : 23.976 fps
Stream size                      : 4.54 GiB (79%)

Audio
Format                           : DTS
Format/Info                      : Digital Theater Systems
Bit rate                         : 1 510 Kbps
Channel(s)                       : 6 channels
Channel positions                : Front: L C R, Surround: L R, LFE
Sampling rate                    : 48.0 KHz
Resolution                       : 24 bits
Stream size                      : 1.12 GiB (19%)
Language                         : English

Subtitles: English
******************
